<?xml version="1.0" encoding="UTF-8" standalone="no"?>
<!-- Created with Inkscape (http://www.inkscape.org/) -->

<svg
   xmlns:dc="http://purl.org/dc/elements/1.1/"
   xmlns:cc="http://creativecommons.org/ns#"
   xmlns:rdf="http://www.w3.org/1999/02/22-rdf-syntax-ns#"
   xmlns:svg="http://www.w3.org/2000/svg"
   xmlns="http://www.w3.org/2000/svg"
   xmlns:sodipodi="http://sodipodi.sourceforge.net/DTD/sodipodi-0.dtd"
   xmlns:inkscape="http://www.inkscape.org/namespaces/inkscape"
   width="95.480927mm"
   height="133.71523mm"
   viewBox="0 0 95.480927 133.71523"
   version="1.1"
   id="svg8"
   inkscape:version="0.92.2 2405546, 2018-03-11"
   sodipodi:docname="logo.svg">
  <defs
     id="defs2" />
  <sodipodi:namedview
     id="base"
     pagecolor="#ffffff"
     bordercolor="#666666"
     borderopacity="1.0"
     inkscape:pageopacity="0.0"
     inkscape:pageshadow="2"
     inkscape:zoom="0.175"
     inkscape:cx="-2085.9469"
     inkscape:cy="-355.13226"
     inkscape:document-units="mm"
     inkscape:current-layer="layer1"
     showgrid="false"
     fit-margin-top="0"
     fit-margin-left="0"
     fit-margin-right="0"
     fit-margin-bottom="0"
     inkscape:window-width="2560"
     inkscape:window-height="1349"
     inkscape:window-x="0"
     inkscape:window-y="0"
     inkscape:window-maximized="1" />
  <metadata
     id="metadata5">
    <rdf:RDF>
      <cc:Work
         rdf:about="">
        <dc:format>image/svg+xml</dc:format>
        <dc:type
           rdf:resource="http://purl.org/dc/dcmitype/StillImage" />
        <dc:title></dc:title>
      </cc:Work>
    </rdf:RDF>
  </metadata>
  <g
     inkscape:label="Capa 1"
     inkscape:groupmode="layer"
     id="layer1"
     transform="translate(-0.45990458,-0.41060817)">
    <path
       style="fill:#ffffff;stroke-width:0.35277778"
       d="m 46.022774,133.73276 c -2.21721,-1.21734 -6.85621,-6.68611 -9.82774,-11.58561 -8.96302,-14.77831 -15.01561,-33.84798 -15.03663,-47.375283 -0.01,-6.397297 1.60097,-12.739077 5.52968,-21.769155 4.6529,-10.694616 13.3531,-24.109856 18.04698,-27.827476 2.10486,-1.66708 3.783,-2.26132 5.6116,-1.98711 1.76407,0.26454 4.6342,1.82754 6.38372,3.4764 1.46729,1.38288 4.97636,5.63028 7.17854,8.68898 0.9121,1.26685 1.78647,2.46212 1.94304,2.65615 0.5545,0.68714 1.68752,2.49231 2.65706,4.23333 5.00857,8.993953 6.9729,15.911978 6.96173,24.518059 -0.0156,11.998887 -4.3955,26.140101 -12.0368,38.862535 -7.18522,11.96306 -9.48051,14.4566 -13.36107,14.51514 -3.20556,0.0484 -6.84097,-3.13392 -10.77808,-9.43464 -2.67654,-4.28337 -3.5468,-6.06766 -5.1727,-10.60553 -5.5065,-15.368574 -4.5084,-34.107096 2.56639,-48.181953 1.83956,-3.659685 5.40119,-9.287511 7.29557,-11.527921 2.94106,-3.47828 6.5871,-4.65473 9.59895,-3.09723 5.2095,2.69393 10.46811,11.590246 13.66597,23.119599 0.95601,3.446721 0.87303,13.733802 -0.14797,18.344445 -1.93463,8.736415 -7.86176,22.4735 -11.36858,26.34852 -2.4296,2.68469 -5.09183,2.88979 -7.50647,0.5783 -4.47778,-4.28649 -6.5045,-11.933224 -6.85629,-25.868487 -0.16949,-6.713844 -0.10447,-8.091046 0.56628,-11.994444 0.85143,-4.954845 1.39534,-6.823855 3.04061,-10.448262 3.15578,-6.951959 8.02278,-8.544507 11.63588,-3.807414 1.26459,1.657988 3.72973,7.744816 4.78431,11.813212 1.5349,5.921385 0.41688,11.926923 -2.65681,14.271339 -1.84624,1.408201 -4.48551,1.602994 -6.19078,0.456922 -1.89756,-1.27531 -2.64741,-3.113335 -2.63746,-6.464964 0.008,-2.55288 0.17251,-3.226234 1.7281,-7.055556 2.784,-6.853233 3.21927,-9.155366 1.96769,-10.406944 -1.07801,-1.078015 -1.75194,-0.867865 -3.62923,1.131701 -1.97493,2.103568 -3.01586,4.000235 -4.12237,7.511355 -1.96693,6.241351 -0.93599,29.37123 1.55354,34.854809 2.03505,4.482533 5.11531,5.304153 7.98589,2.130163 1.40864,-1.55753 1.83067,-2.368803 4.75199,-9.134658 5.70032,-13.202102 6.72882,-18.875111 5.08596,-28.0532 -1.33228,-7.443044 -3.51288,-13.67057 -6.09669,-17.411422 -1.31861,-1.9091 -5.30736,-5.669144 -6.76381,-6.375994 -0.77611,-0.37666 -2.15636,-0.68918 -3.06721,-0.69449 -1.39785,-0.008 -1.84079,0.16935 -2.84046,1.13827 -2.21583,2.14767 -5.26102,8.005972 -7.38017,14.19791 -4.93206,14.410973 -4.75262,33.990662 0.43605,47.578404 3.7469,9.81213 10.53917,13.31125 16.05088,8.2688 1.31678,-1.20466 2.8884,-3.27184 4.10546,-5.39998 1.70242,-2.97683 5.87123,-11.460244 6.58759,-13.405556 1.04132,-2.827761 4.13416,-15.546646 4.64635,-19.107472 0.60193,-4.184735 0.26449,-9.302058 -1.01976,-15.464751 -1.94903,-9.352718 -4.50893,-15.200915 -9.10662,-20.804485 -0.39511,-0.48155 -1.77238,-2.24205 -4.82759,-6.17089 -1.75643,-2.25867 -3.6186,-3.3637 -5.66592,-3.3622 -2.13775,10e-4 -3.41589,0.69184 -5.53207,2.98762 -4.09167,4.43894 -10.32523,13.612473 -13.14325,19.342086 -3.98458,8.10145 -5.48921,14.154838 -5.76097,23.177314 -0.15905,5.280526 -0.0771,6.802441 0.56676,10.520518 1.68641,9.739101 4.79748,19.359456 9.19033,28.419206 2.1001,4.33122 3.97224,7.07094 7.41988,10.85837 3.51081,3.85682 4.96902,4.88246 6.94173,4.88246 1.95687,0 3.12566,-0.60385 4.89809,-2.53056 1.097,-1.19249 11.24491,-16.12261 14.94477,-21.98749 2.98031,-4.724293 8.91279,-20.675488 10.23209,-27.511954 1.22655,-6.355829 0.78992,-14.50097 -1.07394,-20.033736 -1.36005,-4.037242 -6.01324,-14.889604 -7.37019,-17.189034 -2.61951,-4.43895 -5.89852,-8.36287 -13.17723,-15.76894 -8.4915,-8.64008 -9.24999,-9.1429 -11.97406,-7.93792 -1.11511,0.49327 -2.04228,1.31488 -3.12291,2.7674 -0.84533,1.13622 -1.62631,2.14522 -1.73553,2.24223 -0.10922,0.097 -1.18063,1.44639 -2.38092,2.99862 -1.86576,2.41283 -4.67504,5.91873 -7.49105,9.34861 -3.28176,3.99716 -8.22559,12.840441 -10.54317,18.859119 -2.98809,7.759948 -4.0887,13.818239 -4.07227,22.415878 0.0176,9.232371 1.02402,13.569291 6.13961,26.458334 2.71565,6.842223 2.9008,7.925483 1.61572,9.452713 -2.14542,2.54968 -4.9318,0.80798 -6.82871,-4.26846 -2.46357,-6.592903 -4.48978,-14.503044 -5.33316,-20.820197 -0.47333,-3.545293 -0.47568,-14.192659 -0.004,-17.764224 1.29175,-9.779628 4.61091,-18.610922 10.67126,-28.393003 3.64859,-5.88924 6.78077,-10.51772 9.03316,-13.3485 1.15789,-1.45521 3.6989,-4.70958 5.6467,-7.23194 7.16153,-9.2740204 6.84749,-9.1787904 13.81589,-4.18928 5.97948,4.28142 7.8864,5.8627 11.62127,9.63675 3.78403,3.82371 5.31775,5.52942 7.94866,8.84003 1.15644,1.45521 2.2088,2.72621 2.33858,2.82445 0.68958,0.52204 4.53238,7.11397 6.47679,11.110271 3.45222,7.095265 5.81683,15.912145 5.81167,21.669806 -0.009,10.464084 -4.80952,23.192917 -15.10931,40.066307 -4.24908,6.96096 -5.18448,8.36581 -5.78376,8.68654 -0.34336,0.18376 -0.6243,0.62116 -0.6243,0.97199 0,0.85228 -7.62885,11.72612 -9.7231,13.8589 -0.91125,0.92802 -2.32146,2.00905 -3.13379,2.40229 -1.6206,0.78453 -4.50837,0.94062 -5.66394,0.30616 z m -33.56316,-20.21461 c -0.9786,-0.68544 -1.67114,-2.43506 -1.39669,-3.52857 0.28517,-1.13619 2.00608,-2.04353 3.295,-1.73725 1.60763,0.38202 2.20791,1.14636 2.20791,2.81139 0,1.20809 -0.18448,1.65233 -0.92952,2.23838 -1.09253,0.85938 -2.15505,0.93164 -3.1767,0.21605 z M 7.6626236,103.25048 c -1.7411902,-0.94476 -2.6182402,-3.810973 -1.5919302,-5.202463 0.6043902,-0.81945 2.3344002,-1.24452 3.6446602,-0.89551 1.5909704,0.42378 2.4247204,1.51954 2.4247204,3.186713 0,1.15501 -0.21286,1.60923 -1.14408,2.44127 -1.2795704,1.1433 -1.9248004,1.23427 -3.3333704,0.46999 z M 2.3470934,91.856705 c -2.35953999,-1.555768 -2.51240999,-3.456976 -0.42529,-5.28949 2.06565,-1.813663 5.2829102,-1.792337 6.6540102,0.04411 0.62349,0.835099 0.65379,1.095693 0.27455,2.361498 -0.91274,3.046452 -4.1078202,4.46332 -6.5032702,2.883885 z m 0.26898,-14.259384 c -0.67717,-0.582479 -0.9866,-1.25143 -1.11797,-2.416966 -0.16949,-1.503754 -0.10515,-1.666042 0.96172,-2.425724 0.66055,-0.470352 1.8519,-0.882231 2.82124,-0.975371 2.1397502,-0.205606 3.1708802,0.66082 3.1708802,2.6644 0,1.563014 -0.70129,2.697963 -2.12056,3.4319 -1.4397302,0.744509 -2.6299202,0.655373 -3.7153102,-0.278239 z M 90.613134,69.836456 c -1.82054,-1.22283 -1.7622,-2.275942 0.22771,-4.110179 1.41734,-1.306459 1.78783,-1.480791 2.75157,-1.294754 1.25132,0.241547 2.34842,1.356258 2.34842,2.386122 0,1.143508 -1.01104,2.723046 -2.10512,3.288817 -1.38166,0.714484 -1.81034,0.678568 -3.22258,-0.270006 z M 3.4024434,64.850835 c -2.51769999,-2.333325 -0.89659,-5.564078 2.83088,-5.641728 1.3088502,-0.02727 1.7171402,0.133844 2.4253702,0.957026 1.32695,1.542344 0.96054,3.621299 -0.89612,5.084389 -0.9708,0.765009 -3.3375002,0.548057 -4.3601302,-0.399687 z M 89.271214,57.32424 c -1.50879,-1.412452 -1.67437,-2.359611 -0.60027,-3.43371 1.12792,-1.127922 2.92151,-1.180962 4.26261,-0.126051 0.84976,0.668422 0.94492,0.93708 0.77653,2.192482 -0.33107,2.46833 -2.53693,3.147787 -4.43887,1.367279 z M 8.0377736,53.809825 c -0.98405,-0.610485 -1.7025,-1.818188 -1.7025,-2.861885 0,-1.650711 2.29068,-3.268913 4.6739404,-3.301806 1.78209,-0.02459 2.38162,0.671664 2.38162,2.765894 0,1.183471 -0.23551,1.776032 -1.09488,2.754796 -1.24568,1.418756 -2.6627904,1.632744 -4.2581804,0.643001 z M 86.170954,46.476912 c -1.11186,-0.778775 -2.04622,-3.425216 -1.54197,-4.367416 0.93446,-1.74605 4.15449,-1.02009 5.19998,1.17233 0.55954,1.173351 0.56014,1.333826 0.009,2.488941 -0.4969,1.042014 -0.77014,1.234722 -1.75073,1.234722 -0.63906,0 -1.50152,-0.23786 -1.91658,-0.528577 z m -73.32532,-5.628996 c -2.11316,-2.11316 -0.36025,-4.77854 3.14264,-4.77854 1.93187,0 2.69422,0.66365 2.69422,2.34539 0,2.84666 -3.82773,4.44228 -5.83686,2.43315 z m 66.80672,-5.70481 c -1.42761,-0.5933 -2.60049,-2.49996 -2.23882,-3.63947 0.11642,-0.36683 0.64761,-0.81892 1.18042,-1.00466 0.84566,-0.2948 1.43126,-0.31743 3.08105,-0.11906 0.90305,0.10857 1.9186,1.52684 1.9186,2.6794 0,1.11652 -0.72555,2.30451 -1.40745,2.30451 -0.1643,0 -0.51015,0.0715 -0.76855,0.15882 -0.25841,0.0874 -1.05277,-0.0834 -1.76525,-0.37954 z m -59.48025,-3.85623 c -1.12609,-0.78874 -1.05634,-2.61011 0.146,-3.81245 1.17518,-1.17518 3.30148,-1.28463 4.36161,-0.22449 0.84886,0.84885 0.86658,1.14154 0.15939,2.63183 -0.87199,1.83759 -3.09431,2.50667 -4.667,1.40511 z m 49.26846,-6.49971 c -0.81302,-0.48792 -1.48744,-2.30967 -1.23193,-3.32771 0.26709,-1.06419 1.23725,-1.40358 3.17954,-1.11232 1.15106,0.17262 1.62314,0.4593 2.10807,1.28022 0.60057,1.01668 0.59916,1.10195 -0.0362,2.19366 -0.54747,0.94075 -0.90042,1.15072 -2.05472,1.22237 -0.76653,0.0476 -1.65069,-0.0677 -1.96479,-0.25622 z m -43.18938,-2.63648 c -2.16125,-2.16125 0.2281,-4.65323 3.17444,-3.31079 1.50945,0.68775 1.08974,2.78434 -0.75396,3.7663 -1.09895,0.5853 -1.44475,0.52023 -2.42048,-0.45551 z m 33.23182,-6.482 c -1.43759,-1.58853 -0.11658,-3.94098 2.21304,-3.94098 1.94981,0 3.00616,0.94428 2.68617,2.40119 -0.13599,0.61914 -0.5875,1.36404 -1.00337,1.65532 -1.05843,0.74135 -3.17723,0.67852 -3.89584,-0.11553 z m -28.16531,-1.23996 c -0.69573,-0.52889 -1.1174,-2.00267 -0.73246,-2.56001 0.45181,-0.65414 1.75443,-1.19934 2.86554,-1.19934 1.41665,0 2.27829,0.89615 1.99914,2.07919 -0.43453,1.84156 -2.70536,2.76487 -4.13222,1.68016 z m 19.49319,-7.1583104 c -0.91522,-1.1635102 -0.91942,-1.7044502 -0.0203,-2.6036302 0.77175,-0.77175 1.95384,-0.69195 3.43421,0.23186 1.66386,1.03832 0.47895,3.3012902 -1.72859,3.3012902 -0.61069,0 -1.21746,-0.33465 -1.68539,-0.92952 z M 40.645144,5.3675454 c -0.86018,-0.34583 -2.20365,-2.29386 -2.20577,-3.19835 -0.004,-1.49178996 3.23544,-2.36047996 4.72903,-1.26833996 1.02111,0.74665996 0.84787,3.03206996 -0.30502,4.02374996 -1.03358,0.88904 -1.08373,0.89905 -2.21824,0.44294 z"
       id="path944"
       inkscape:connector-curvature="0"
       sodipodi:nodetypes="cscsscsccccssssscccscsssssscccscsssssccccssscsssscccssscssssssscssccccsccccccscsscscccscsccccccsscccccscccssccccsccscccscssccccccccscccscsccccccscccsscccccssccscccscccscccccscccscccccscccccsccccscc" />
  </g>
</svg>
